<svg width="18" height="19" viewBox="0 0 18 19" fill="none" xmlns="http://www.w3.org/2000/svg">
<path d="M15.5325 6.485L12.0225 2.975C11.88 2.8325 11.685 2.75 11.49 2.75H6.51C6.315 2.75 6.12 2.8325 5.985 2.9675L2.4675 6.485C2.3325 6.62 2.25 6.815 2.25 7.01V11.9825C2.25 12.185 2.3325 12.3725 2.4675 12.515L5.9775 16.025C6.12 16.1675 6.315 16.25 6.51 16.25H11.4825C11.685 16.25 11.8725 16.1675 12.015 16.0325L15.525 12.5225C15.6675 12.38 15.7425 12.1925 15.7425 11.99V7.01C15.75 6.815 15.6675 6.62 15.5325 6.485ZM14.25 11.675L11.175 14.75H6.825L3.75 11.675V7.325L6.825 4.25H11.175L14.25 7.325V11.675Z" fill="#4A4E57"/>
<path d="M9 13.25C9.41421 13.25 9.75 12.9142 9.75 12.5C9.75 12.0858 9.41421 11.75 9 11.75C8.58579 11.75 8.25 12.0858 8.25 12.5C8.25 12.9142 8.58579 13.25 9 13.25Z" fill="#4A4E57"/>
<path d="M9 5.75C8.5875 5.75 8.25 6.0875 8.25 6.5V10.25C8.25 10.6625 8.5875 11 9 11C9.4125 11 9.75 10.6625 9.75 10.25V6.5C9.75 6.0875 9.4125 5.75 9 5.75Z" fill="#4A4E57"/>
</svg>
